<?xml version="1.0" encoding="UTF-8"?>
<svg id="Capa_2" data-name="Capa 2" xmlns="http://www.w3.org/2000/svg" viewBox="0 0 530.8 86.64">
  <defs>
    <style>
      .cls-1 {
        fill: #f36f21;
      }

      .cls-1, .cls-2, .cls-3, .cls-4 {
        stroke-width: 0px;
      }

      .cls-2 {
        fill: #008fd3;
      }

      .cls-3 {
        fill: #0088a7;
      }

      .cls-4 {
        fill: #bcbec0;
      }
    </style>
  </defs>
  <g id="Capa_1-2" data-name="Capa 1">
    <g>
      <g>
        <path class="cls-4" d="M79.35,75.8c-.27-.65-.95-1.08-1.65-1.08-.54,0-.95.2-1.95.76-9.91-1.04-62.2-25.24-68.26-31.68-.05-.05-.1-.1-.15-.14-.48-.4-.18-1.86-.06-2.48l.06-.28c.81-4.25,9.84-17.14,26.61-10.99.34.13-6.96-4.83-8.14-4.83-.91,0-6.67.38-9.55.95-.32.06-.55.11-.65.13-.12.02-.24.05-.36.09-3.42,1.27-6.09,2.61-8.22,4.18-.52.42-.74,1.09-.61,1.71-3.18,2.39-4.74,4.66-4.74,4.66v-.08c-.34.67-.65,1.37-.95,2.12-1,2.56-.98,5.85.05,7.49,3.6,5.81,21.38,14.99,35.66,21.67,13.46,6.29,31.08,13.61,33.63,13.61.04,0,.13,0,.17,0,1.84-.13,4.15-1.32,6.39-2.59.65-.04,1.17-.18,1.6-.45.12-.07.23-.16.33-.26.45-.47,1.29-1.33.8-2.48"/>
        <path class="cls-4" d="M3.55,75.8c.27-.65.95-1.08,1.65-1.08.54,0,.95.2,1.95.76,9.91-1.04,62.2-25.24,68.26-31.68.05-.05.1-.1.15-.14.48-.4.18-1.86.06-2.48l-.05-.28c-.81-4.25-9.84-17.14-26.61-10.99-.34.13,5.19-4.83,6.37-4.83.91,0,8.44.38,11.33.95.32.06.55.11.65.13.12.02.24.05.36.09,3.42,1.27,6.09,2.61,8.22,4.18.52.42.74,1.09.61,1.71,3.18,2.39,4.74,4.66,4.74,4.66v-.08c.34.67.66,1.37.94,2.12,1,2.56.98,5.85-.05,7.49-3.6,5.81-21.38,14.99-35.66,21.67-13.46,6.29-31.08,13.61-33.63,13.61-.04,0-.13,0-.17,0-1.84-.13-4.15-1.32-6.39-2.59-.65-.04-1.17-.18-1.6-.45-.12-.07-.23-.16-.32-.26-.45-.47-1.29-1.33-.8-2.48"/>
        <path class="cls-3" d="M6.49,31.19s0,.03,0,.05c0-.01,0-.03,0-.05M82.25,72.36c-.08-.28-.17-.57-.26-.89-.01-.04-.02-.08-.04-.12-4.75-13.16-17.82-30.03-33.28-39.56-2.72-1.67-5.51-3.13-8.35-4.29-4.76-2.24-12.81-3.93-15.9-3.73-6.13.1-11.65,2.2-17.36,6.62,0,0-.02.02-.03.03-2.36,1.74-4.06,3.75-5.35,6.29v.08s1.56-2.27,4.74-4.66c-.03-.16-.04-.32-.03-.47-.01.16,0,.32.03.47,3.9-2.93,10.23-6.03,19.15-5.33,6.13.71,14.56,6.86,18.07,9.58.53.38,1.06.78,1.58,1.18,15.39,11.89,26.24,32.74,26.83,37.35l.03.17c.1.66.11,1-.09,1.23-.12.14-.51.47-1.6.7-2.86.54-10.4,1.2-28.94-6.72,0,0,14.29,6.63,24.54,10.12.58.38,1.54.64,2.99,1.03,1.37.37,3.43.83,5.44.97.39.03.77.04,1.13.04,5.63,0,6.95-3.2,7.24-5.13.3-2.14-.07-3.38-.55-4.95"/>
        <path class="cls-1" d="M76.43,31.24s0-.03,0-.05c0,.02,0,.03,0,.05M.11,77.31c.29,1.93,1.62,5.13,7.24,5.13.37,0,.74-.01,1.13-.04,2.02-.13,4.07-.6,5.45-.97,1.44-.39,2.41-.65,2.99-1.03,10.25-3.49,24.6-10.15,24.6-10.15-18.54,7.93-26.14,7.29-29,6.75-1.09-.23-1.48-.56-1.6-.7-.2-.23-.18-.56-.09-1.23l.02-.17c.6-4.61,11.44-25.46,26.84-37.35.52-.4,1.05-.8,1.58-1.18,3.51-2.72,11.94-8.87,18.07-9.58,8.91-.69,15.25,2.41,19.15,5.34.03-.16.04-.32.03-.47.01.16,0,.32-.03.47,3.18,2.39,4.74,4.66,4.74,4.66v-.08c-1.29-2.54-2.99-4.55-5.35-6.29-.01,0-.02-.02-.03-.03-5.71-4.41-11.23-6.52-17.36-6.62-3.08-.2-11.14,1.5-15.89,3.73-2.83,1.16-5.63,2.62-8.35,4.29C18.78,41.32,5.7,58.2.95,71.36c-.01.04-.03.08-.04.12-.09.32-.18.62-.26.89-.47,1.57-.84,2.81-.55,4.95"/>
        <path class="cls-1" d="M50.05,13.46c0,4.68-3.85,8.47-8.6,8.47s-8.6-3.79-8.6-8.47,3.85-8.47,8.6-8.47,8.6,3.8,8.6,8.47"/>
      </g>
      <polygon class="cls-4" points="101.24 22.1 101.24 6.21 110.37 6.21 110.37 9.02 104.43 9.02 104.43 12.61 110.2 12.61 110.2 15.4 104.43 15.4 104.43 22.1 101.24 22.1"/>
      <path class="cls-4" d="M118.89,22.1v-1.45c-.62.88-1.88,1.74-3.38,1.74-2.14,0-3.1-1.17-3.1-3.12v-8.67h2.86v7.6c0,1.21.57,1.67,1.52,1.67s1.71-.69,2.1-1.38v-7.89h2.88v11.51h-2.88Z"/>
      <path class="cls-4" d="M130.85,22.1v-7.55c0-1.24-.57-1.71-1.52-1.71s-1.71.74-2.12,1.43v7.84h-2.86v-11.51h2.86v1.5c.62-.9,1.93-1.79,3.41-1.79,2.14,0,3.1,1.22,3.1,3.17v8.62h-2.86Z"/>
      <path class="cls-4" d="M142.9,18.5v-4.34c-.38-.74-1.21-1.33-2-1.33-1.5,0-2.26,1.5-2.26,3.5s.76,3.53,2.26,3.53c.79,0,1.62-.59,2-1.36M142.9,22.1v-1.45c-.71,1.14-1.81,1.74-2.93,1.74-2.6,0-4.29-2.26-4.29-6.05s1.69-6.03,4.29-6.03c1.12,0,2.24.55,2.93,1.76v-5.86h2.86v15.89h-2.86Z"/>
      <path class="cls-4" d="M154.98,18.5v-4.31c-.38-.74-1.21-1.34-2-1.34-1.5,0-2.26,1.48-2.26,3.48s.76,3.53,2.26,3.53c.79,0,1.62-.59,2-1.36M154.98,22.1v-1.45c-.71,1.14-1.81,1.74-2.93,1.74-2.6,0-4.29-2.26-4.29-6.05s1.69-6.03,4.29-6.03c1.12,0,2.24.55,2.93,1.76v-1.48h2.86v11.51h-2.86Z"/>
      <path class="cls-4" d="M159.84,16.33c0-3.5,2.12-6.03,5.29-6.03,1.81,0,3.03.74,3.67,1.55l-1.38,1.98c-.52-.67-1.14-1-1.95-1-1.64,0-2.67,1.48-2.67,3.5s1.03,3.53,2.67,3.53c.81,0,1.43-.36,1.95-1.02l1.38,2c-.64.83-1.86,1.55-3.67,1.55-3.17,0-5.29-2.53-5.29-6.05"/>
      <path class="cls-4" d="M170.53,10.59h2.86v11.51h-2.86v-11.51ZM170.25,7.59c0-.95.79-1.74,1.71-1.74s1.74.78,1.74,1.74-.79,1.71-1.74,1.71-1.71-.76-1.71-1.71"/>
      <path class="cls-4" d="M180.8,8.85h-1.91l2.57-3.43h2.55l-3.22,3.43ZM182.87,16.33c0-1.88-.69-3.5-2.26-3.5s-2.26,1.62-2.26,3.5.71,3.53,2.26,3.53,2.26-1.62,2.26-3.53M175.37,16.33c0-3.24,1.83-6.03,5.24-6.03s5.24,2.79,5.24,6.03-1.81,6.05-5.24,6.05-5.24-2.81-5.24-6.05"/>
      <path class="cls-4" d="M194.33,22.1v-7.55c0-1.24-.57-1.71-1.52-1.71s-1.71.74-2.12,1.43v7.84h-2.86v-11.51h2.86v1.5c.62-.9,1.93-1.79,3.41-1.79,2.14,0,3.1,1.22,3.1,3.17v8.62h-2.86Z"/>
      <path class="cls-1" d="M100.44,49.48l2.29-3.67c1.31,1.48,3.39,2.54,5.72,2.54,2.16,0,3.25-1.17,3.25-2.61,0-4.17-10.56-2.68-10.56-10.66,0-3.71,2.89-6.88,7.77-6.88,2.9,0,5.37.95,7.17,2.61l-2.22,3.6c-1.41-1.38-3.25-2.01-5.05-2.01s-2.83.99-2.83,2.4c0,3.71,10.52,2.65,10.52,10.56,0,4.1-2.79,7.2-8.02,7.2-3.57,0-6.18-1.17-8.05-3.07"/>
      <path class="cls-1" d="M129.22,46.8v-6.39c-.57-1.09-1.8-1.98-2.97-1.98-2.22,0-3.36,2.19-3.36,5.16s1.13,5.23,3.36,5.23c1.17,0,2.4-.88,2.97-2.01M129.22,52.13v-2.15c-1.06,1.69-2.68,2.58-4.34,2.58-3.85,0-6.36-3.36-6.36-8.97s2.51-8.93,6.36-8.93c1.66,0,3.32.81,4.34,2.61v-2.19h4.24v17.05h-4.24Z"/>
      <path class="cls-1" d="M137.3,48.03v-19.46h4.24v18.47c0,1.09.42,1.77,1.27,1.77.49,0,1.02-.21,1.24-.49l.88,3.25c-.64.57-1.73.99-3.28.99-2.97,0-4.34-1.52-4.34-4.52"/>
      <path class="cls-1" d="M156.51,46.8v-6.43c-.57-1.09-1.8-1.98-2.97-1.98-2.22,0-3.35,2.22-3.35,5.19s1.13,5.23,3.35,5.23c1.17,0,2.4-.88,2.97-2.01M156.51,52.13v-2.15c-1.06,1.69-2.68,2.58-4.34,2.58-3.85,0-6.36-3.36-6.36-8.97s2.51-8.93,6.36-8.93c1.66,0,3.32.81,4.34,2.61v-8.69h4.24v23.55h-4.24Z"/>
      <path class="cls-1" d="M174.41,46.8v-6.39c-.56-1.09-1.8-1.98-2.97-1.98-2.23,0-3.36,2.19-3.36,5.16s1.13,5.23,3.36,5.23c1.17,0,2.4-.88,2.97-2.01M174.41,52.13v-2.15c-1.06,1.69-2.68,2.58-4.34,2.58-3.85,0-6.36-3.36-6.36-8.97s2.51-8.93,6.36-8.93c1.66,0,3.32.81,4.34,2.61v-2.19h4.24v17.05h-4.24Z"/>
      <path class="cls-1" d="M182.5,52.13v-17.05h4.24v2.33c.95-1.52,2.86-2.76,4.66-2.76v4.17c-.28-.07-.64-.14-.99-.14-1.34,0-2.97.92-3.67,2.08v11.37h-4.24Z"/>
      <path class="cls-1" d="M193.79,52.13v-17.05h4.24v2.33c.95-1.52,2.86-2.76,4.66-2.76v4.17c-.28-.07-.64-.14-.99-.14-1.34,0-2.97.92-3.67,2.08v11.37h-4.24Z"/>
      <path class="cls-1" d="M205.09,35.07h4.24v17.05h-4.24v-17.05ZM204.67,30.62c0-1.41,1.17-2.58,2.54-2.58s2.58,1.17,2.58,2.58-1.16,2.54-2.58,2.54-2.54-1.13-2.54-2.54"/>
      <path class="cls-1" d="M222.96,46.8v-6.39c-.56-1.09-1.8-1.98-2.97-1.98-2.22,0-3.36,2.19-3.36,5.16s1.13,5.23,3.36,5.23c1.17,0,2.4-.88,2.97-2.01M222.96,52.13v-2.15c-1.06,1.69-2.68,2.58-4.34,2.58-3.85,0-6.36-3.36-6.36-8.97s2.51-8.93,6.36-8.93c1.66,0,3.32.81,4.34,2.61v-2.19h4.24v17.05h-4.24Z"/>
      <path class="cls-1" d="M240.86,46.27v-5.9c-.57-1.09-1.8-1.98-2.97-1.98-2.22,0-3.36,1.98-3.36,4.94s1.13,4.91,3.36,4.91c1.17,0,2.4-.88,2.97-1.98M230.9,56.83l1.66-3.25c1.2,1.24,2.68,1.87,4.45,1.87,1.94,0,3.85-1.06,3.85-3.88v-2.22c-1.06,1.69-2.68,2.65-4.34,2.65-3.85,0-6.36-3.07-6.36-8.65s2.47-8.69,6.36-8.69c1.66,0,3.28.81,4.34,2.61v-2.19h4.24v16.49c0,5.86-4.06,7.49-7.87,7.49-2.54,0-4.52-.6-6.32-2.22"/>
      <path class="cls-1" d="M258.73,46.8v-6.39c-.57-1.09-1.8-1.98-2.97-1.98-2.22,0-3.36,2.19-3.36,5.16s1.13,5.23,3.36,5.23c1.17,0,2.4-.88,2.97-2.01M258.73,52.13v-2.15c-1.06,1.69-2.68,2.58-4.34,2.58-3.85,0-6.36-3.36-6.36-8.97s2.51-8.93,6.36-8.93c1.66,0,3.32.81,4.34,2.61v-2.19h4.24v17.05h-4.24Z"/>
      <path class="cls-1" d="M101,70.4c0-7.17,3.85-12.18,10.03-12.18,4.48,0,6.67,2.93,7.87,5.65l-3.92,1.73c-.71-1.87-2.08-3.18-3.96-3.18-3.25,0-5.19,3.32-5.19,7.98s1.94,7.98,5.19,7.98c1.94,0,3.32-1.48,3.99-3.43l3.92,1.69c-1.17,2.79-3.36,5.93-7.91,5.93-6.18,0-10.03-5.05-10.03-12.18"/>
      <path class="cls-1" d="M131.76,73.62c0-2.79-1.02-5.19-3.36-5.19s-3.35,2.4-3.35,5.19,1.06,5.23,3.35,5.23,3.36-2.4,3.36-5.23M120.63,73.62c0-4.8,2.72-8.93,7.77-8.93s7.77,4.13,7.77,8.93-2.68,8.97-7.77,8.97-7.77-4.17-7.77-8.97"/>
      <path class="cls-1" d="M148.74,82.16v-11.19c0-1.84-.85-2.54-2.26-2.54s-2.54,1.09-3.14,2.12v11.62h-4.24v-17.06h4.24v2.22c.92-1.34,2.86-2.65,5.05-2.65,3.18,0,4.59,1.8,4.59,4.7v12.78h-4.24Z"/>
      <path class="cls-1" d="M155.91,73.62c0-5.19,3.14-8.93,7.84-8.93,2.68,0,4.48,1.1,5.44,2.3l-2.05,2.93c-.78-.99-1.69-1.48-2.9-1.48-2.44,0-3.96,2.19-3.96,5.19s1.52,5.23,3.96,5.23c1.2,0,2.12-.53,2.9-1.52l2.05,2.97c-.95,1.24-2.76,2.29-5.44,2.29-4.7,0-7.84-3.74-7.84-8.97"/>
      <path class="cls-1" d="M181.4,82.16v-11.26c0-1.8-.85-2.47-2.26-2.47s-2.54,1.09-3.11,2.12v11.62h-4.27v-23.55h4.27v8.72c.88-1.34,2.82-2.65,5.01-2.65,3.18,0,4.59,1.73,4.59,4.63v12.85h-4.24Z"/>
      <path class="cls-1" d="M199.27,76.83v-6.39c-.57-1.09-1.8-1.98-2.97-1.98-2.23,0-3.36,2.19-3.36,5.15s1.13,5.23,3.36,5.23c1.17,0,2.4-.88,2.97-2.01M199.27,82.16v-2.16c-1.06,1.7-2.68,2.58-4.34,2.58-3.85,0-6.36-3.35-6.36-8.97s2.51-8.93,6.36-8.93c1.66,0,3.32.81,4.34,2.61v-2.19h4.24v17.06h-4.24Z"/>
    </g>
    <g>
      <path class="cls-2" d="M506.97.02c-8.95,0-16.23,7.28-16.23,16.23s7.28,16.23,16.23,16.23,16.23-7.28,16.23-16.23S515.91.02,506.97.02M519.62,7.2c-.83.56-1.71,1.07-2.61,1.51-.53-1.07-1.18-2.09-1.94-3.03.67-.41,1.3-.86,1.89-1.35,1.01.84,1.9,1.81,2.66,2.87ZM512.8,1.81c1.29.52,2.51,1.23,3.64,2.09-.56.46-1.16.88-1.79,1.26-.8-.91-1.69-1.74-2.67-2.47.3-.27.57-.56.82-.88ZM514.05,5.5c-.87.47-1.79.85-2.73,1.14-.39-.9-.85-1.79-1.35-2.64.52-.23,1.02-.52,1.48-.87.95.69,1.83,1.49,2.61,2.37ZM512.14,1.57c-.22.26-.46.51-.72.73-.86-.59-1.77-1.09-2.72-1.5,1.18.13,2.33.38,3.44.77ZM510.87,2.73c-.39.28-.81.51-1.24.7-.47-.74-1-1.47-1.57-2.18.98.4,1.93.9,2.81,1.48ZM507.3,1.36c.6.72,1.16,1.49,1.68,2.3-.54.17-1.11.27-1.68.29V1.36ZM507.3,4.62c.7-.03,1.38-.16,2.04-.38.5.82.94,1.69,1.33,2.58-1.1.28-2.24.44-3.37.46v-2.67ZM506.62,1.39v2.56c-.56-.03-1.11-.13-1.65-.29.5-.78,1.05-1.54,1.65-2.27ZM504.33,3.42c-.45-.19-.86-.42-1.24-.7.88-.58,1.81-1.07,2.8-1.48-.55.69-1.08,1.42-1.55,2.17ZM505.27.79c-.96.42-1.87.92-2.74,1.51-.26-.23-.5-.48-.72-.73,1.12-.39,2.27-.65,3.46-.78ZM516.39,28.64c-2.16-1.19-2.2-2.83-2.09-3.43.11-.61.54-.35.81-.35,1.42,0,2.91-.42,4.75-2.3,2.07-2.12,2.72-6.82-.46-9.88-3.43-3.3-7.09-2.73-9.44.24-.48.61-1.66,1.06-2.68,1.02-1.51-.06-.56,1.13-.56,1.38s-.23.42-.36.39c-.51-.15-.31.61-.31.84s-.21.35-.32.35c-.63,0-.46.57-.44.73.02.15-.04.42-.25.53-.2.11-.44.61-.44,1,0,.69.63,1.17,1.69,1.96,1.05.79,1.18,1.53,1.2,2.07.02.53.07,1.4.31,1.97.28.69.25,1.95-1.21,2.01-1.78.07-4.94,1.49-5.21,1.59-1,.36-2.33.48-3.37.23-.56-.4-1.09-.83-1.59-1.29-.21-.72.15-1.48.52-2,.59.59,1.48.56,1.97.57.5.02,2.93-.36,3.28-.48.35-.12.5-.08.71,0,.93.34,2.2.44,2.72-1.34.52-1.78-.71-1.28-.86-1.21-.15.08-.37.06-.29-.09.23-.45-.11-.41-.31-.42-.5-.05-1.15.48-1.36.67-.21.19-.42.17-.5.13-.66-.33-2.63.15-3.24-.92.06-.28-.5-4.62-.78-5.36-.06-.16-.12-.42.07-.71.5-.75,1.88.05,2.63.04.89-.03,1.04-.4,1.28-.7.23-.29.41-.13.54-.21.16-.11,0-.32.07-.43.06-.11.13-.06.28-.19.15-.14-.02-.42.06-.54.22-.33.82-.07.46-.94-.2-.48.08-1,.34-1.34.43-.56,2.11-2.92-.84-5.36-2.82-2.33-5.67-2.15-7.51-.15-1.84,1.99-.92,4.91-.73,5.67.19.77-.36,1.46-1,1.76-.5.24-1.65,1-2.52,1.76.14-6.25,3.93-11.75,9.75-14.09.25.31.52.6.82.88-.65.47-2.06,1.74-2.06,1.74,0,0,.19.03.37.07.13.03.39.11.39.11,0,0,1.25-1.06,1.83-1.48.46.35.95.63,1.48.87-.28.48-.99,1.81-.99,1.81,0,0,.16.1.31.2.15.1.24.19.24.19,0,0,.77-1.46,1.07-1.95.65.22,1.33.34,2.02.37v2.67c-.38-.01-1.36-.05-1.76-.09l-.25-.02.14.21c.11.15.19.31.26.45l.03.06h.07c.29.03,1.18.06,1.51.07v4.86h.68v-1.11c.99-.05,1.81-.12,2.81-.2h.04s.87-.78.87-.78l-.48.04c-1.05.14-1.98.2-2.81.25,0,0-.29.02-.44.03v-3.09c1.22-.03,2.44-.2,3.64-.51.33.8.94,2.75.94,2.75l.63-.2s-.61-1.93-.94-2.74c1.01-.31,1.99-.73,2.91-1.24.75.92,1.39,1.92,1.92,2.98-.48.22-1.35.53-1.35.53.7.08,1.23.24,1.23.24,0,0,.25-.11.41-.18.06.14.18.42.18.42l.87.39-.1-.24s-.29-.69-.36-.85c.92-.46,1.83-.98,2.7-1.56,1.66,2.53,2.53,5.47,2.53,8.51,0,5.05-2.42,9.54-6.15,12.39Z"/>
      <path class="cls-2" d="M489.27,4.34l-.25.22c-.95.84-3.13,3.07-2.79,5.51,0,0,.03.17.03.17,0,0,.11.48.11.48l.3-.28c1.33-1.22,2.33-3.28,2.74-5.67l.12-.67-.25.23"/>
      <path class="cls-2" d="M484.85,8.55l-.11.3c-.15.41-.43,1.26-.57,2.4-.2,1.61-.16,3.89,1.24,5.59,0,0,.15.2.15.2l.16.21.21-1.03c.23-1.83-.07-5.66-.74-7.37l-.23-.58-.11.29"/>
      <path class="cls-2" d="M483.24,15.14l-.02.3c-.12,1.64-.03,5.69,3.24,7.83,0,0,.39.25.39.25l-.02-.46c-.06-1.54-1.85-6.12-3.19-7.76l-.38-.47-.02.3"/>
      <path class="cls-2" d="M483.81,22.39l.06.28c.48,2.33,2.69,6.09,6.09,7.18l.47.15-.17-.46c-.64-1.74-3.92-5.79-6.03-7.13l-.48-.3.06.28"/>
      <path class="cls-2" d="M490.65,7.84l-.27.16c-2.54,1.55-3.72,3.42-3.63,5.74l.02.53.37-.31c1.37-1.13,3.09-4.04,3.59-5.68l.18-.6-.27.16"/>
      <path class="cls-2" d="M489.16,12.91l-.19.18c-.65.62-2.75,2.85-2.57,5.62.03.43.13.88.29,1.36l.15.44.27-.38c1-1.41,2.33-5.14,2.26-6.87l-.02-.53-.19.18"/>
      <path class="cls-2" d="M489.27,17.7l-.14.21c-1.06,1.57-1.6,3.19-1.57,4.67.03,1.1.38,2.15,1.04,3.13l.22.33.19-.35c.46-.86.82-3.65.77-5.86-.02-.78-.1-1.43-.23-1.87l-.14-.49-.14.21"/>
      <path class="cls-2" d="M490.49,22.83l-.07.22c-.32,1.02-.47,2.02-.44,2.97.06,2.14,1.01,3.82,2.83,4.99l.31.19.07-.41s.03-.33.03-.33c-.05-1.74-1.35-6.14-2.37-7.48l-.28-.37-.07.22"/>
      <path class="cls-2" d="M486.92,29.64l.13.22c1.37,2.29,3.68,5.24,8.02,4.48l.36-.06-.21-.3c-.81-1.2-6.07-4.17-7.93-4.48l-.51-.08.13.22"/>
      <path class="cls-2" d="M493.33,35.45l-.68.18.65.27c2.75,1.13,6.21,1.46,8.21.79.75-.26,1.21-.67,1.77-1.21,3.52.36,6.83,3.3,8.75,5.69,0,0,.1.12.1.12l.15-.05c.22-.07.55-.33.69-.48l.14-.15-.12-.16c-2.01-2.62-5.15-4.25-5.29-4.32-2.83-1.38-7.82-2.46-14.37-.68"/>
      <path class="cls-2" d="M493.47,28.12l.04.23c.41,2.6,1.47,6,5.85,5.63l.28-.02-.07-.27c-.3-1.18-4.31-4.61-5.72-5.57l-.42-.22.04.23"/>
      <path class="cls-2" d="M524.47,4.11l.11.67c.41,2.38,1.41,4.45,2.74,5.67l.3.28s.11-.48.11-.48c0,0,.03-.16.03-.17.34-2.44-1.84-4.66-2.79-5.51l-.25-.22-.25-.23"/>
      <path class="cls-2" d="M529.04,8.26l-.23.58c-.67,1.71-.98,5.54-.75,7.37l.21,1.03.16-.21s.15-.2.15-.2c1.4-1.7,1.45-3.98,1.24-5.59-.15-1.14-.42-1.99-.57-2.4l-.11-.3-.11-.29"/>
      <path class="cls-2" d="M530.74,14.84l-.38.47c-1.34,1.64-3.14,6.23-3.19,7.76l-.02.46s.38-.25.38-.25c3.28-2.15,3.36-6.19,3.25-7.83l-.02-.3-.02-.3"/>
      <path class="cls-2" d="M530.25,22.11l-.48.3c-2.11,1.33-5.39,5.39-6.03,7.13l-.17.46.47-.15c3.41-1.09,5.61-4.86,6.09-7.18l.06-.28.06-.28"/>
      <path class="cls-2" d="M523.21,7.6l.17.6c.47,1.66,2.13,4.59,3.48,5.75l.37.31.03-.53c.14-2.31-1.02-4.21-3.52-5.81l-.27-.17-.26-.17"/>
      <path class="cls-2" d="M524.65,12.73l-.02.53c-.07,1.73,1.26,5.46,2.26,6.87l.27.38.15-.44c.16-.48.26-.93.29-1.36.18-2.76-1.92-5-2.57-5.62l-.19-.18-.19-.18"/>
      <path class="cls-2" d="M524.59,17.49l-.14.49c-.13.44-.21,1.09-.23,1.87-.05,2.21.31,5,.76,5.86l.19.35.23-.33c.66-.98,1.01-2.03,1.04-3.13.04-1.49-.5-3.1-1.56-4.67l-.14-.21-.14-.21"/>
      <path class="cls-2" d="M523.43,22.62l-.28.37c-1.02,1.34-2.32,5.73-2.37,7.48,0,0,.02.32.03.33l.07.41s.31-.19.31-.19c1.81-1.16,2.77-2.84,2.83-4.99.03-.95-.12-1.95-.44-2.97l-.07-.22-.07-.22"/>
      <path class="cls-2" d="M527.21,29.42l-.5.08c-1.86.3-7.12,3.27-7.93,4.48l-.2.3.36.06c4.34.76,6.65-2.2,8.02-4.48l.13-.22.13-.22"/>
      <path class="cls-2" d="M506.3,36.13c-.14.07-3.28,1.69-5.29,4.32l-.12.16.14.15c.14.15.47.41.69.48l.15.05s.1-.12.1-.12c1.92-2.39,5.22-5.33,8.75-5.69.56.54,1.02.96,1.77,1.21,2,.67,5.45.34,8.21-.79l.65-.27-.68-.18c-6.55-1.78-11.54-.7-14.37.68"/>
      <path class="cls-2" d="M520.56,27.89l-.42.22c-1.4.96-5.42,4.39-5.72,5.57l-.07.27.28.02c4.39.38,5.44-3.03,5.85-5.63l.04-.23.03-.23"/>
      <path class="cls-2" d="M408.4,1.17h5.54v5.05h-5.54V1.17M408.84,36.58V11.96h4.66v24.62h-4.66Z"/>
      <path class="cls-2" d="M373.67,11.98h4.66v24.62h-4.56v-3.63h-.1c-1.86,3.09-5,4.37-8.44,4.37-5.15,0-8.09-3.92-8.09-8.88V11.98h4.66v14.57c0,4.27.98,7.41,5.44,7.41,1.91,0,4.51-.98,5.49-3.53.88-2.31.93-5.2.93-5.79v-12.65"/>
      <path class="cls-2" d="M387.63,15.61h.1c1.57-3.09,5-4.36,7.45-4.36,1.72,0,9.32.44,9.32,8.34v17.02h-4.66v-15.5c0-4.07-1.72-6.28-5.64-6.28,0,0-2.55-.15-4.51,1.81-.69.69-1.96,1.76-1.96,6.57v13.39h-4.66V11.98h4.56v3.63"/>
      <path class="cls-2" d="M433.01,19.88c-.24-3.07-1.7-5.21-5.02-5.21-4.43,0-6.14,3.84-6.14,9.6s1.71,9.6,6.14,9.6c3.07,0,4.97-1.99,5.21-5.51h4.63c-.4,5.51-4.48,8.87-9.89,8.87-7.84,0-10.96-5.55-10.96-12.77s3.6-13.16,11.36-13.16c5.16,0,9.06,3.27,9.3,8.58h-4.62"/>
      <path class="cls-2" d="M444.79,25.14c-.34,4.29,1.41,8.73,6.14,8.73,3.61,0,5.41-1.41,5.94-4.98h4.88c-.73,5.56-5.02,8.34-10.87,8.34-7.85,0-10.97-5.55-10.97-12.77s3.61-13.16,11.36-13.16c7.31.15,10.76,4.78,10.76,11.56v2.28h-17.24M457.17,21.93c.1-4.09-1.76-7.26-6.24-7.26-3.85,0-6.14,3.25-6.14,7.26h12.38Z"/>
      <path class="cls-2" d="M467.28,36.5V15.25h-4.21v-3.22h4.21v-5.26c.15-5.36,4.19-6.77,7.65-6.77,1.12,0,2.2.29,3.32.48v3.85c-.79-.04-1.56-.15-2.35-.15-2.62,0-4.14.69-3.99,3.37v4.48h5.65v3.22h-5.65v21.24h-4.63"/>
      <rect class="cls-2" x="357.05" y="53.46" width="172.03" height=".94"/>
      <path class="cls-2" d="M358.74,86.64h-1.41v-13.67c.02-.92-.07-1.86-.12-2.66h1.46l.07,1.74.05.05c.82-1.39,2.47-2.14,4.05-2.14,3.51,0,4.85,3.15,4.85,6.21s-1.34,6.3-4.77,6.3c-1.72,0-3.15-.78-4.12-2.19h-.05v6.35M362.76,81.18c2.7,0,3.39-2.99,3.39-5.18s-.92-4.75-3.6-4.75-3.81,2.28-3.81,4.68c0,2.68.94,5.25,4.02,5.25Z"/>
      <path class="cls-2" d="M376.85,73.8c-.14-1.93-1.13-2.54-2.8-2.54-1.48,0-2.71.45-2.89,2.05h-1.51c.35-2.42,2.16-3.34,4.42-3.34,2.61,0,4.23,1.2,4.19,3.9v5.6c-.02.92.07,1.86.12,2.66h-1.46l-.05-1.74h-.05l-.07.17c-.52.99-2.09,1.93-3.69,1.93-2.19,0-3.93-1.34-3.93-3.65,0-1.6.96-2.82,2.38-3.41,1.58-.68,3.62-.45,5.34-.54v-1.08M373.32,81.18c3.08,0,3.67-2.54,3.53-5.01-2,.07-6.19-.31-6.19,2.66,0,1.6,1.22,2.35,2.66,2.35Z"/>
      <path class="cls-2" d="M382.87,82.12h-1.41v-9.15c.02-.92-.07-1.86-.12-2.66h1.46l.07,1.74h.05c.42-1.2,1.48-2.05,2.66-2.09.47-.02.94,0,1.41.02v1.36c-.28-.02-.59-.09-.87-.09-2.09,0-3.2,1.5-3.25,3.76v7.1"/>
      <path class="cls-2" d="M395.5,73.8c-.14-1.93-1.13-2.54-2.8-2.54-1.48,0-2.7.45-2.89,2.05h-1.51c.35-2.42,2.16-3.34,4.42-3.34,2.61,0,4.23,1.2,4.19,3.9v5.6c-.02.92.07,1.86.12,2.66h-1.46l-.05-1.74h-.05l-.07.17c-.52.99-2.09,1.93-3.69,1.93-2.19,0-3.93-1.34-3.93-3.65,0-1.6.96-2.82,2.38-3.41,1.58-.68,3.62-.45,5.34-.54v-1.08M391.97,81.18c3.08,0,3.67-2.54,3.53-5.01-2,.07-6.19-.31-6.19,2.66,0,1.6,1.22,2.35,2.66,2.35Z"/>
      <path class="cls-2" d="M412.7,73.94c-.12-1.81-1.27-2.68-3.22-2.68-2.16,0-3.51,2.26-3.51,4.94s1.34,4.99,3.51,4.99c1.83,0,3.11-1.13,3.22-2.75h1.53c-.38,2.71-1.93,4.05-4.61,4.05-3.53,0-5.17-3.03-5.17-6.26s1.76-6.26,5.27-6.26c2.42,0,4.4,1.46,4.52,3.98h-1.53"/>
      <path class="cls-2" d="M423.21,73.8c-.14-1.93-1.13-2.54-2.8-2.54-1.48,0-2.71.45-2.89,2.05h-1.5c.35-2.42,2.16-3.34,4.42-3.34,2.61,0,4.23,1.2,4.19,3.9v5.6c-.02.92.07,1.86.12,2.66h-1.46l-.05-1.74h-.05l-.07.17c-.52.99-2.09,1.93-3.69,1.93-2.19,0-3.93-1.34-3.93-3.65,0-1.6.96-2.82,2.38-3.41,1.58-.68,3.62-.45,5.34-.54v-1.08M419.68,81.18c3.08,0,3.67-2.54,3.53-5.01-2,.07-6.19-.31-6.19,2.66,0,1.6,1.22,2.35,2.66,2.35Z"/>
      <path class="cls-2" d="M435.96,80.38l-.05-.09c-.96,1.41-2.4,2.19-4.05,2.19-3.5,0-4.85-3.34-4.85-6.3s1.34-6.21,4.85-6.21c1.58,0,3.22.75,4.05,2.14l.05-.05v-6.92h1.41v14.33c0,.92.07,1.86.12,2.66h-1.46l-.07-1.74M432.1,71.26c-2.68,0-3.55,2.49-3.55,4.75s.63,5.18,3.34,5.18c3.08,0,4.02-2.57,4.02-5.25,0-2.4-1.06-4.68-3.81-4.68Z"/>
      <path class="cls-2" d="M447.11,73.8c-.14-1.93-1.13-2.54-2.8-2.54-1.48,0-2.71.45-2.89,2.05h-1.51c.35-2.42,2.16-3.34,4.42-3.34,2.61,0,4.23,1.2,4.19,3.9v5.6c-.02.92.07,1.86.12,2.66h-1.46l-.05-1.74h-.05l-.07.17c-.52.99-2.09,1.93-3.69,1.93-2.19,0-3.93-1.34-3.93-3.65,0-1.6.96-2.82,2.38-3.41,1.58-.68,3.62-.45,5.34-.54v-1.08M443.58,81.18c3.08,0,3.67-2.54,3.53-5.01-2,.07-6.19-.31-6.19,2.66,0,1.6,1.22,2.35,2.66,2.35Z"/>
      <path class="cls-2" d="M458.4,66.9h-1.65v-1.76h1.65v1.76M458.28,70.32v11.81h-1.41v-11.81h1.41Z"/>
      <path class="cls-2" d="M463.01,82.12h-1.41v-9.15c0-.92-.07-1.86-.12-2.66h1.46l.07,1.74.05.05c.82-1.46,2.16-2.14,3.69-2.14,3.86,0,4.16,3.41,4.16,4.77v7.39h-1.41v-7.62c0-2.05-1.18-3.25-3.11-3.25-2.33,0-3.39,1.95-3.39,4.07v6.8"/>
      <path class="cls-2" d="M475.21,82.12v-10.51h-2.38v-1.29h2.38v-2.52c0-2.02.82-2.94,2.85-2.94.45,0,.92.17,1.34.26v1.13c-.28-.05-.59-.09-.87-.09-1.93,0-1.98.96-1.91,2.66v1.51h2.68v1.29h-2.68v10.51h-1.41"/>
      <path class="cls-2" d="M487.77,73.8c-.14-1.93-1.13-2.54-2.8-2.54-1.48,0-2.7.45-2.89,2.05h-1.51c.35-2.42,2.16-3.34,4.42-3.34,2.61,0,4.23,1.2,4.19,3.9v5.6c-.02.92.07,1.86.12,2.66h-1.46l-.05-1.74h-.05l-.07.17c-.52.99-2.09,1.93-3.69,1.93-2.19,0-3.93-1.34-3.93-3.65,0-1.6.96-2.82,2.38-3.41,1.58-.68,3.62-.45,5.34-.54v-1.08M484.25,81.18c3.08,0,3.67-2.54,3.53-5.01-2,.07-6.19-.31-6.19,2.66,0,1.6,1.22,2.35,2.66,2.35Z"/>
      <path class="cls-2" d="M493.8,82.12h-1.41v-9.15c0-.92-.07-1.86-.12-2.66h1.46l.07,1.74.05.05c.82-1.46,2.16-2.14,3.69-2.14,3.86,0,4.16,3.41,4.16,4.77v7.39h-1.41v-7.62c0-2.05-1.18-3.25-3.11-3.25-2.33,0-3.39,1.95-3.39,4.07v6.8"/>
      <path class="cls-2" d="M512.45,73.94c-.12-1.81-1.27-2.68-3.22-2.68-2.16,0-3.51,2.26-3.51,4.94s1.34,4.99,3.51,4.99c1.83,0,3.11-1.13,3.22-2.75h1.53c-.38,2.71-1.93,4.05-4.61,4.05-3.53,0-5.17-3.03-5.17-6.26s1.76-6.26,5.27-6.26c2.42,0,4.4,1.46,4.52,3.98h-1.53"/>
      <path class="cls-2" d="M517.83,66.9h-1.65v-1.76h1.65v1.76M517.72,70.32v11.81h-1.41v-11.81h1.41Z"/>
      <path class="cls-2" d="M527.71,73.8c-.14-1.93-1.13-2.54-2.8-2.54-1.48,0-2.7.45-2.89,2.05h-1.51c.35-2.42,2.16-3.34,4.42-3.34,2.61,0,4.23,1.2,4.19,3.9v5.6c-.02.92.07,1.86.12,2.66h-1.46l-.05-1.74h-.05l-.07.17c-.52.99-2.09,1.93-3.69,1.93-2.19,0-3.93-1.34-3.93-3.65,0-1.6.96-2.82,2.38-3.41,1.57-.68,3.62-.45,5.34-.54v-1.08M524.19,81.18c3.08,0,3.67-2.54,3.53-5.01-2,.07-6.19-.31-6.19,2.66,0,1.6,1.22,2.35,2.66,2.35Z"/>
    </g>
  </g>
</svg>