<?xml version="1.0" encoding="UTF-8"?>
<svg id="Capa_2" data-name="Capa 2" xmlns="http://www.w3.org/2000/svg" viewBox="0 0 327.04 114.4">
  <defs>
    <style>
      .cls-1 {
        fill: #0099da;
      }

      .cls-1, .cls-2, .cls-3, .cls-4 {
        stroke-width: 0px;
      }

      .cls-5 {
        font-family: Montserrat-Medium, Montserrat;
        font-size: 13.29px;
        font-weight: 500;
      }

      .cls-2, .cls-3 {
        fill: #76b22a;
      }

      .cls-2, .cls-4 {
        fill-rule: evenodd;
      }

      .cls-6 {
        letter-spacing: -.01em;
      }

      .cls-7 {
        letter-spacing: 0em;
      }

      .cls-4 {
        fill: #1d1d1b;
      }
    </style>
  </defs>
  <g id="Capa_1-2" data-name="Capa 1">
    <g>
      <text class="cls-5" transform="translate(208.82 18.63)"><tspan x="0" y="0">Desa</tspan><tspan class="cls-7" x="33.73" y="0">r</tspan><tspan class="cls-6" x="39.09" y="0">r</tspan><tspan x="44.38" y="0">ollado por:</tspan></text>
      <g>
        <polygon class="cls-1" points="206.52 78.78 208.92 78.78 208.92 85.22 210.2 85.22 210.2 78.78 212.61 78.78 212.61 77.63 206.52 77.63 206.52 78.78"/>
        <path class="cls-1" d="M224.2,81.76c.27-.42.41-.93.41-1.54,0-.83-.27-1.46-.8-1.92-.54-.45-1.29-.68-2.25-.68h-3.08v7.59h1.28v-2.29h1.8c.16,0,.28,0,.35-.01l1.39,2.3h1.45l-1.7-2.54c.5-.2.89-.51,1.16-.92ZM221.55,81.79h-1.8v-3.01h1.8c.59,0,1.05.12,1.37.37s.48.62.48,1.11-.16.89-.48,1.14c-.32.26-.77.39-1.37.39Z"/>
        <path class="cls-1" d="M233.87,77.63l-3.35,7.59h1.33l.73-1.71h3.83l.73,1.71h1.37l-3.31-7.59h-1.31ZM233.05,82.37l1.43-3.37,1.43,3.37h-2.86Z"/>
        <polygon class="cls-1" points="250.03 83.09 245.96 77.63 244.7 77.63 244.7 85.22 245.98 85.22 245.98 79.78 250.03 85.22 251.29 85.22 251.29 77.63 250.03 77.63 250.03 83.09"/>
        <path class="cls-1" d="M262.58,81.26c-.32-.15-.74-.3-1.25-.45-.39-.11-.7-.22-.91-.31-.22-.09-.4-.21-.54-.37s-.21-.34-.21-.56c0-.25.11-.45.33-.59.22-.14.52-.21.91-.21.31,0,.66.06,1.05.17s.78.29,1.17.53l.53-1.13c-.36-.24-.77-.43-1.23-.57-.46-.14-.94-.21-1.42-.21-.55,0-1.03.09-1.45.26s-.74.42-.97.74c-.23.32-.35.69-.35,1.12,0,.47.11.84.34,1.12.23.28.5.49.82.64.32.14.73.29,1.25.44.39.12.69.22.91.3.22.09.4.21.55.36s.22.34.22.58c0,.29-.12.52-.37.68s-.6.24-1.05.24c-.41,0-.85-.1-1.3-.29-.46-.19-.88-.46-1.26-.82l-.56,1.11c.41.37.88.66,1.42.88.54.22,1.1.33,1.68.33s1.05-.09,1.48-.27c.43-.18.77-.44,1.01-.77.24-.33.37-.72.37-1.16,0-.47-.11-.85-.34-1.14-.23-.29-.5-.51-.83-.66Z"/>
        <polygon class="cls-1" points="274.46 82.68 271.95 77.63 270.43 77.63 270.43 85.22 271.64 85.22 271.64 79.55 274.03 84.43 274.87 84.43 277.27 79.55 277.28 85.22 278.46 85.22 278.46 77.63 276.95 77.63 274.46 82.68"/>
        <polygon class="cls-1" points="286.94 81.98 290.65 81.98 290.65 80.84 286.94 80.84 286.94 78.78 291.08 78.78 291.08 77.63 285.66 77.63 285.66 85.22 291.21 85.22 291.21 84.07 286.94 84.07 286.94 81.98"/>
        <path class="cls-1" d="M303.11,78.12c-.6-.33-1.27-.49-2.02-.49h-3.11v7.59h3.08c.76,0,1.44-.16,2.04-.49.6-.33,1.07-.78,1.41-1.35.34-.58.51-1.22.51-1.95s-.17-1.37-.51-1.95c-.34-.58-.8-1.03-1.4-1.35ZM303.38,82.8c-.23.4-.54.71-.94.94-.4.22-.84.34-1.32.34h-1.86v-5.29h1.81c.49,0,.94.11,1.34.34.41.23.73.55.96.95.23.4.35.86.35,1.36s-.11.96-.34,1.36Z"/>
        <rect class="cls-1" x="311.58" y="77.63" width="1.28" height="7.59"/>
        <path class="cls-1" d="M322.42,77.63l-3.35,7.59h1.33l.73-1.71h3.83l.73,1.71h1.37l-3.31-7.59h-1.31ZM321.6,82.37l1.43-3.37,1.43,3.37h-2.86Z"/>
        <polygon class="cls-1" points="291.51 36.14 282.87 51.11 274.22 36.14 267.07 36.14 282.87 63.51 298.67 36.14 291.51 36.14"/>
        <path class="cls-1" d="M267.07,49.82c0-7.84-6.35-14.19-14.19-14.19h0c-7.84,0-14.19,6.35-14.19,14.19s6.35,14.19,14.19,14.19h0c7.84,0,14.19-6.35,14.19-14.19ZM252.88,57.59c-4.28,0-7.76-3.48-7.76-7.76s3.48-7.76,7.76-7.76,7.76,3.48,7.76,7.76-3.48,7.76-7.76,7.76Z"/>
        <path class="cls-1" d="M312.86,35.64h0c-7.84,0-14.19,6.35-14.19,14.19s6.35,14.19,14.19,14.19h14.19s0-14.19,0-14.19c0-7.84-6.35-14.19-14.19-14.19ZM320.62,52.25v5.33h-7.61c-4.1,0-7.62-3.13-7.9-7.22-.32-4.71,3.58-8.61,8.29-8.29,4.1.28,7.22,3.79,7.22,7.9v2.28Z"/>
        <rect class="cls-1" x="234.22" y="29.83" width="6.2" height="6.2"/>
        <rect class="cls-1" x="265.35" y="63.62" width="6.2" height="6.2"/>
        <path class="cls-1" d="M233.89,63.51v-13.68c0-7.56-6.13-13.68-13.68-13.68h-13.68v27.37h6.2v-21.17h7.49c4.13,0,7.49,3.36,7.49,7.49v13.68h6.2Z"/>
      </g>
    </g>
    <g>
      <path class="cls-4" d="M2.22,94.36h3.21c3.31,0,5.07-1.68,5.07-4.29,0-1.86-1.02-3.16-2.9-3.6,1.22-.52,1.78-1.43,1.78-2.82,0-2.15-1.54-3.55-4.45-3.55h-2.67C.46,80.11,0,80.81,0,82.39v9.93c0,1.55.5,2.04,2.22,2.04M3.27,91.58v-3.2h1.56c1.51,0,2.27.48,2.27,1.59,0,1.03-.74,1.61-2.21,1.61h-1.63ZM3.27,85.66v-2.79h1.32c1,0,1.65.54,1.65,1.4,0,.8-.62,1.39-1.6,1.39h-1.37Z"/>
      <path class="cls-4" d="M15.2,92.25v-10.02c0-1.55-.53-2.31-1.63-2.31s-1.62.75-1.62,2.31v10.02c0,1.55.51,2.31,1.62,2.31s1.63-.75,1.63-2.31"/>
      <path class="cls-4" d="M23.2,80.11h-3.67c-1.8,0-2.23.7-2.23,2.28v9.93c0,1.55.47,2.04,2.19,2.04h3.81c1.54,0,2.3-.46,2.3-1.5s-.76-1.5-2.3-1.5h-2.75v-2.67h2.28c1.55,0,2.31-.48,2.31-1.51s-.77-1.5-2.31-1.5h-2.28v-2.54h2.65c1.54,0,2.29-.49,2.29-1.51s-.75-1.52-2.29-1.52"/>
      <path class="cls-4" d="M30.15,92.25v-6.57l5.88,7.77c.62.81,1.18,1.19,1.87,1.19,1.04,0,1.49-.68,1.49-2.04v-10.38c0-1.55-.52-2.31-1.63-2.31s-1.64.75-1.64,2.31v6.69l-6-7.94c-.52-.68-1-1.03-1.73-1.03-1.04,0-1.49.73-1.49,2.17v10.14c0,1.55.52,2.31,1.63,2.31s1.61-.75,1.61-2.31"/>
      <path class="cls-4" d="M47.31,80.11h-3.67c-1.81,0-2.25.7-2.25,2.28v9.93c0,1.55.48,2.04,2.21,2.04h3.79c1.55,0,2.32-.46,2.32-1.5s-.77-1.5-2.32-1.5h-2.75v-2.67h2.28c1.55,0,2.32-.48,2.32-1.51s-.76-1.5-2.32-1.5h-2.28v-2.54h2.66c1.53,0,2.29-.49,2.29-1.51s-.76-1.52-2.29-1.52"/>
      <path class="cls-4" d="M60.41,89.96c0-2.15-1.3-3.46-3.94-4.34-1.62-.54-2.6-.66-2.6-1.67,0-.71.59-1.23,1.6-1.23.85,0,1.76.5,2.55.5.92,0,1.47-.54,1.47-1.39,0-1.16-1.53-2.12-3.9-2.12-3.16,0-5.19,1.95-5.19,4.53,0,2.22,1.29,3.22,4.05,4.06,1.55.45,2.47.8,2.47,1.95,0,.84-.69,1.46-1.61,1.46-1.44,0-2.59-.72-3.44-.72-1.03,0-1.62.61-1.62,1.47,0,1.16,1.95,2.29,4.61,2.29,3.43,0,5.55-2.03,5.55-4.79"/>
      <path class="cls-4" d="M63.39,83.14v9.11c0,1.55.53,2.31,1.63,2.31s1.63-.75,1.63-2.31v-9.11h1.21c1.53,0,2.3-.49,2.3-1.5s-.77-1.53-2.3-1.53h-5.66c-1.55,0-2.31.5-2.31,1.53s.76,1.5,2.31,1.5h1.19Z"/>
      <path class="cls-4" d="M72.57,88.69l1.76-5.29,1.63,5.29h-3.4ZM71.63,91.68h5.29l.4,1.32c.31,1.07.86,1.58,1.7,1.58.89,0,1.6-.59,1.6-1.53,0-.27-.08-.62-.2-1.02l-3.62-10.26c-.45-1.22-1.3-1.89-2.38-1.89-1.21,0-1.98.69-2.5,2.11l-3.71,10.07c-.13.3-.16.63-.16.96,0,.9.64,1.54,1.55,1.54.68,0,1.24-.49,1.56-1.44l.48-1.45Z"/>
      <path class="cls-4" d="M84.6,86.43v-3.47h1.55c1.3,0,2.02.65,2.02,1.7,0,1.11-.76,1.77-2.07,1.77h-1.49ZM84.6,88.59l3.79,4.76c.6.74,1.09,1.17,1.75,1.17.9,0,1.54-.69,1.54-1.53,0-.53-.32-1.15-.97-1.87l-2.55-2.85c2.14-.36,3.41-1.83,3.41-3.86,0-2.62-1.94-4.45-5.44-4.45h-2.53c-1.82,0-2.25.7-2.25,2.28v9.86c0,1.55.52,2.31,1.63,2.31s1.63-.76,1.63-2.31v-3.52Z"/>
      <path class="cls-4" d="M6.11,99.86h-3.65c-1.8,0-2.25.7-2.25,2.29v9.85c0,1.54.51,2.31,1.61,2.31s1.64-.76,1.64-2.31v-3.55h2.28c1.54,0,2.32-.49,2.32-1.52s-.78-1.5-2.32-1.5h-2.28v-2.56h2.64c1.56,0,2.31-.48,2.31-1.5s-.75-1.52-2.31-1.52"/>
      <path class="cls-4" d="M13.68,108.45l1.78-5.31,1.63,5.31h-3.41ZM12.75,111.43h5.29l.41,1.32c.32,1.08.85,1.59,1.7,1.59s1.61-.6,1.61-1.52c0-.29-.09-.62-.24-1.02l-3.6-10.26c-.45-1.22-1.28-1.88-2.39-1.88-1.2,0-1.97.68-2.51,2.11l-3.7,10.06c-.12.31-.17.63-.17.95,0,.9.66,1.54,1.55,1.54.7,0,1.25-.47,1.58-1.44l.47-1.45Z"/>
      <path class="cls-4" d="M23.41,111.62c-.09.41-.12.75-.12.99,0,1.06.67,1.69,1.58,1.69,1.02,0,1.52-.67,1.71-2.09l1.12-8.33,2.11,8.79c.31,1.23.85,1.64,1.91,1.64.67,0,1.09-.15,1.37-.59.49-.75,1.3-4.06,2.65-9.85l1.02,8.53c.17,1.26.67,1.91,1.59,1.91.97,0,1.67-.65,1.67-1.71,0-.17-.03-.44-.09-.78l-1.58-9.81c-.26-1.59-.87-2.34-2.29-2.34-1.17,0-1.93.63-2.23,1.88l-2.04,8.57-2.17-8.53c-.31-1.31-1.06-1.92-2.26-1.92-1.38,0-1.93.73-2.21,2.21l-1.74,9.73Z"/>
      <path class="cls-4" d="M46.18,112v-10.01c0-1.54-.52-2.3-1.63-2.3s-1.63.75-1.63,2.3v10.01c0,1.54.52,2.31,1.63,2.31s1.63-.76,1.63-2.31"/>
      <path class="cls-4" d="M50.04,101.98v10.1c0,1.54.5,2.04,2.22,2.04h3.79c1.54,0,2.32-.49,2.32-1.51s-.77-1.5-2.32-1.5h-2.75v-9.13c0-1.54-.53-2.3-1.62-2.3s-1.64.76-1.64,2.3"/>
      <path class="cls-4" d="M63.9,112v-10.01c0-1.54-.52-2.3-1.62-2.3s-1.63.75-1.63,2.3v10.01c0,1.54.52,2.31,1.63,2.31s1.62-.76,1.62-2.31"/>
      <path class="cls-4" d="M71.03,108.45l1.76-5.31,1.65,5.31h-3.41ZM70.11,111.43h5.27l.41,1.32c.33,1.08.86,1.59,1.7,1.59.89,0,1.61-.6,1.61-1.52,0-.29-.07-.62-.21-1.02l-3.61-10.26c-.45-1.22-1.31-1.88-2.4-1.88-1.2,0-1.98.68-2.51,2.11l-3.7,10.06c-.11.31-.16.63-.16.95,0,.9.66,1.54,1.55,1.54.71,0,1.25-.47,1.57-1.44l.48-1.45Z"/>
      <path class="cls-4" d="M84.85,106.31v-3.47h1.55c1.31,0,2.03.63,2.03,1.7s-.74,1.77-2.08,1.77h-1.5ZM84.85,108.48l3.8,4.75c.58.75,1.09,1.17,1.75,1.17.89,0,1.53-.7,1.53-1.53,0-.53-.32-1.14-.96-1.87l-2.58-2.85c2.14-.37,3.43-1.83,3.43-3.86,0-2.62-1.95-4.44-5.46-4.44h-2.51c-1.81,0-2.25.7-2.25,2.29v9.85c0,1.54.52,2.31,1.63,2.31s1.62-.76,1.62-2.31v-3.51Z"/>
      <rect class="cls-3" x="0" y="96.09" width="91.61" height="1.54"/>
      <path class="cls-2" d="M15.1,8.07S5.9,30.93,5.17,33.21c-1.99,6.14,3.61,12.34,3.61,12.34-.01-.04,19.02,18.84,19.02,29.5h16.78s-.2-16.67-.19-16.7c-.24-5.39-1.11-6.52-3.09-9.14-.71-.95-3.35-3.65-5.04-5.31-4.31-4.23-11.86-11.85-12.63-12.51-1.04-.94-3.79-3.41-5.72-1.28-1.72,1.87.4,4.98.4,4.98l8.07,10.08s.89,1.06.17,1.65c-.68.55-1.25.02-1.63-.44-2.69-3.23-9.37-11.24-9.5-11.33-2.03-1.98-.24-5.87-.24-5.87,0,0,4.58-12.61,4.78-13.8.16-.97.14-1.34-.23-1.81-.38-.54-1.48-.87-1.48-.87l.25-1.18s.34-1.35-.81-2.27c-1.02-.79-2.56-1.21-2.56-1.21"/>
      <path class="cls-2" d="M76.19,8.07s9.21,22.86,9.95,25.15c1.98,6.14-3.62,12.34-3.62,12.34.01-.04-19.02,18.84-19.02,29.5h-16.79s.21-16.67.2-16.7c.25-5.39,1.1-6.52,3.09-9.14.7-.95,3.34-3.65,5.05-5.31,4.29-4.23,11.86-11.85,12.62-12.51,1.05-.94,3.79-3.41,5.73-1.28,1.69,1.87-.41,4.98-.41,4.98l-8.06,10.08s-.9,1.06-.18,1.65c.68.55,1.26.02,1.63-.44,2.71-3.23,9.39-11.24,9.5-11.33,2.04-1.98.25-5.87.25-5.87,0,0-4.58-12.61-4.76-13.8-.17-.97-.15-1.34.22-1.81.38-.54,1.48-.87,1.48-.87l-.26-1.18s-.33-1.35.82-2.27c1.03-.79,2.56-1.21,2.56-1.21"/>
      <path class="cls-4" d="M64.62,31.1c-2.98,2.71-6.45,6.34-8.79,8.8-.1-5.31-.18-9.13-.18-9.29,0-5.43-1.35-10.96-3.85-14.86,1.12-.9,2.37-1.39,3.68-1.39,5.06,0,9.15,7.34,9.15,16.39v.35ZM26.54,30.98c0-7.57,3.41-13.68,7.65-13.68s7.65,6.12,7.65,13.68c0,.39-.01.77-.02,1.13,0,0,.08,6.17.13,14.41-1.14-1.28-2.54-2.59-4.14-4.19-3.36-3.29-8.68-8.63-11.27-11.19v-.16ZM37.84,5.63c0-3.11,2.54-5.63,5.65-5.63s5.65,2.53,5.65,5.63-2.53,5.65-5.65,5.65-5.65-2.53-5.65-5.65M53.51,32.12s.14,4.13.28,9.91l-.29.3c-2.35,2.32-4.27,4.1-5.71,6.06-.87,1.03-1.57,2.25-2.13,3.56-.42-.99-.92-1.93-1.54-2.77-.07-9.18-.15-16.53-.18-17.05.03-.37.03-.76.03-1.14,0-6.02-2.21-12.58-6.39-14.92,1.65-2.16,3.71-3.43,5.91-3.43,5.54,0,10.05,8.05,10.05,17.99,0,.51,0,1-.03,1.5M50.33,8.02c0-2.83,2.32-5.14,5.15-5.14s5.13,2.31,5.13,5.14-2.28,5.13-5.13,5.13-5.15-2.29-5.15-5.13M29.91,11.96c0-2.37,1.92-4.3,4.29-4.3s4.29,1.92,4.29,4.3-1.93,4.31-4.29,4.31-4.29-1.91-4.29-4.31"/>
    </g>
  </g>
</svg>