<?xml version="1.0" encoding="utf-8"?>
<!-- Generator: Adobe Illustrator 28.1.0, SVG Export Plug-In . SVG Version: 6.00 Build 0)  -->
<svg version="1.1" id="Capa_2_00000034780933094218704950000013993572719910962365_"
	 xmlns="http://www.w3.org/2000/svg" xmlns:xlink="http://www.w3.org/1999/xlink" x="0px" y="0px" viewBox="0 0 100 100"
	 style="enable-background:new 0 0 100 100;" xml:space="preserve">
<style type="text/css">
	.st0{fill:#00146C;}
</style>
<g id="Capa_1-2">
	<g>
		<path class="st0" d="M35,30.1L5,69.9h10.3l4.2-5.7h16.8v5.7H45V30.1H35z M25.1,56.9l11.3-15.2v15.2H25.1z"/>
		<path class="st0" d="M58.7,29.9c-0.3,0-10.3,0.1-10.3,0.1v40c0,0,10,0.1,10.3,0.1c11.1,0,20.1-8.9,20.1-20.1S69.8,29.9,58.7,29.9z
			 M57.2,62.6V37.4c0.3,0,0.5,0,0.8,0c6.6,0.3,12,5.8,12,12.6s-5.4,12.3-12,12.6C57.7,62.6,57.3,62.6,57.2,62.6L57.2,62.6z"/>
		<path class="st0" d="M79.8,29.9h-4.8c5.7,4.9,9.4,12.1,9.4,20.1S80.9,65,75.1,70h4.6c4.8-4.9,7.8-12.1,7.8-20.1
			S84.6,34.9,79.8,29.9z"/>
		<path class="st0" d="M87.7,29.9h-3.5C89,34.8,92,42,92,50S89,65,84.2,70h3.5C92.4,65.2,95,58,95,50S92.4,34.9,87.7,29.9z"/>
	</g>
</g>
</svg>
