<?xml version="1.0" encoding="utf-8"?>
<!-- Generator: Adobe Illustrator 28.1.0, SVG Export Plug-In . SVG Version: 6.00 Build 0)  -->
<svg version="1.1" id="Capa_2_00000170988582770880950620000005708496835306731693_"
	 xmlns="http://www.w3.org/2000/svg" xmlns:xlink="http://www.w3.org/1999/xlink" x="0px" y="0px" viewBox="0 0 100 100"
	 style="enable-background:new 0 0 100 100;" xml:space="preserve">
<style type="text/css">
	.st0{fill:#00146C;}
</style>
<g id="Capa_1-2">
	<g>
		<path class="st0" d="M84.9,53c-0.1,1-0.2,2.1-0.3,3.1c-1.2,7.7-4.2,14.4-9.1,20.4c-1.2,1.5-3.1,1.6-4.5,0.5
			c-1.7-1.4-2.1-3.3-0.9-4.8c1.5-2.1,3-4.1,4.2-6.4c1.7-3.5,3-7.2,3.5-11.2c0.9-7.7-0.6-14.9-4.5-21.5c-1-1.7-2.4-3.3-3.6-5
			c-0.3-0.6-0.8-1.3-0.8-2c-0.2-1.4,0.9-3,2.3-3.6c1.3-0.6,2.8-0.1,3.8,1c5.1,5.8,8.3,12.6,9.6,20.3c0.2,1.3,0.3,2.7,0.6,4L84.9,53
			L84.9,53z"/>
		<path class="st0" d="M50,50.3c0,7,0,14,0,21c0,1.7-0.7,2.9-2.1,3.5c-1.2,0.5-2.3,0.1-3.3-0.7c-2.6-2.1-5.1-4.2-7.6-6.3
			c-3-2.6-6.1-5-9.1-7.6c-0.3-0.2-0.7-0.3-1.2-0.3c-2.7,0-5.4-0.1-8.2,0c-2.4,0-3.6-1.7-3.6-3.6c0.1-4,0-8,0-12
			c0-2.1,1.3-3.4,3.4-3.4c2.8,0,5.6,0,8.4,0c0.3,0,0.8-0.1,1-0.3c5.5-4.5,10.9-9,16.3-13.5c1-0.9,2.2-1.5,3.7-0.9
			c1.2,0.5,1.9,1.3,2,2.6c0,0.3,0,0.7,0,1C50,36.6,50,43.5,50,50.3L50,50.3z"/>
		<path class="st0" d="M69.6,50.3c-0.1,5.6-1.7,10.6-5,15.1c-1,1.5-3,1.9-4.4,0.8c-1.7-1.2-2.3-3.1-1.3-4.8c1.3-2,2.6-4.1,3.1-6.4
			c1.4-5.6,0.5-10.8-2.9-15.6c-0.5-0.6-0.9-1.3-1.2-2c-0.5-1.5,0.5-3.1,2-4c1.4-0.7,2.9-0.3,4,0.8c3,3.7,4.9,8,5.5,12.8
			C69.4,48.2,69.6,49.3,69.6,50.3L69.6,50.3z"/>
	</g>
</g>
</svg>
