<?xml version="1.0" encoding="utf-8"?>
<!-- Generator: Adobe Illustrator 28.1.0, SVG Export Plug-In . SVG Version: 6.00 Build 0)  -->
<svg version="1.1" id="Capa_1" xmlns="http://www.w3.org/2000/svg" xmlns:xlink="http://www.w3.org/1999/xlink" x="0px" y="0px"
	 viewBox="0 0 100 100" style="enable-background:new 0 0 100 100;" xml:space="preserve">
<style type="text/css">
	.st0{fill:#00146C;}
</style>
<g>
	<g>
		<path class="st0" d="M85,25c0,1.9-1.5,3.4-3.4,3.4H35.4c-1.9,0-3.4-1.5-3.4-3.4c0-1.9,1.5-3.4,3.4-3.4h46.3
			C83.5,21.7,85,23.2,85,25z M81.6,38.3H35.4c-1.9,0-3.4,1.5-3.4,3.4c0,1.9,1.5,3.4,3.4,3.4h46.3c1.9,0,3.4-1.5,3.4-3.4
			C85,39.8,83.5,38.3,81.6,38.3z M81.6,55H35.4c-1.9,0-3.4,1.5-3.4,3.4c0,1.9,1.5,3.4,3.4,3.4h46.3c1.9,0,3.4-1.5,3.4-3.4
			C85,56.5,83.5,55,81.6,55z M81.6,71.6H35.4c-1.9,0-3.4,1.5-3.4,3.4c0,1.9,1.5,3.4,3.4,3.4h46.3c1.9,0,3.4-1.5,3.4-3.4
			C85,73.1,83.5,71.6,81.6,71.6z M20.6,19.4c-3.1,0-5.6,2.5-5.6,5.6s2.5,5.6,5.6,5.6s5.6-2.5,5.6-5.6S23.7,19.4,20.6,19.4z
			 M20.6,36.1c-3.1,0-5.6,2.5-5.6,5.6c0,3.1,2.5,5.6,5.6,5.6s5.6-2.5,5.6-5.6C26.2,38.6,23.7,36.1,20.6,36.1z M20.6,52.8
			c-3.1,0-5.6,2.5-5.6,5.6c0,3.1,2.5,5.6,5.6,5.6s5.6-2.5,5.6-5.6C26.2,55.3,23.7,52.8,20.6,52.8z M20.6,69.4
			c-3.1,0-5.6,2.5-5.6,5.6s2.5,5.6,5.6,5.6s5.6-2.5,5.6-5.6C26.2,71.9,23.7,69.4,20.6,69.4z"/>
	</g>
</g>
</svg>
