<?xml version="1.0" encoding="utf-8"?>
<!-- Generator: Adobe Illustrator 28.1.0, SVG Export Plug-In . SVG Version: 6.00 Build 0)  -->
<svg version="1.1" id="Capa_2_00000013176531432931693550000003601815434240789428_"
	 xmlns="http://www.w3.org/2000/svg" xmlns:xlink="http://www.w3.org/1999/xlink" x="0px" y="0px" viewBox="0 0 100 100"
	 style="enable-background:new 0 0 100 100;" xml:space="preserve">
<style type="text/css">
	.st0{fill:#00146C;}
</style>
<g id="Capa_1-2">
	<g>
		<path class="st0" d="M82.9,35.5l-30.2,5.6c-0.8,0.1-1.5,0.9-1.5,1.8v38.7c0,1.2,1.1,2,2.1,1.8l30.2-5.6c0.8-0.1,1.5-0.9,1.5-1.8
			V37.3C85,36.1,83.9,35.3,82.9,35.5L82.9,35.5z M79.9,70.4l-23.5,4.3v-3.3l23.5-4.3V70.4z M79.9,62.8l-23.5,4.3v-3.3l23.5-4.3V62.8
			z M79.9,55.1l-23.5,4.3v-3.3l23.5-4.3V55.1z M79.9,47.4l-23.5,4.3v-3.3l23.5-4.3V47.4z"/>
		<g>
			<path class="st0" d="M42.1,67.7c-0.1-0.1-0.3-0.1-0.5-0.1l-4.7-0.7h-0.1c-0.1,0-0.2,0-0.3,0.1c-0.2,0.1-0.3,0.2-0.3,0.5
				c0,0.2-0.1,0.3,0,0.6c0,0.2,0.1,0.5,0.3,0.7c0.1,0.1,0.2,0.2,0.5,0.2c0.1,0,0.2,0.1,0.3,0.1l4.7,0.7c0.2,0,0.5,0,0.7-0.2
				c0.1-0.1,0.1-0.2,0.2-0.3c0-0.1,0-0.4,0-0.5c0-0.2-0.1-0.5-0.3-0.6C42.4,67.9,42.2,67.7,42.1,67.7L42.1,67.7z"/>
			<path class="st0" d="M47.3,41.1l-30.2-5.6c-1-0.2-2.1,0.7-2.1,1.8V76c0,0.8,0.6,1.6,1.5,1.8l30.2,5.6c1.1,0.2,2.1-0.7,2.1-1.8
				V42.9C48.8,42,48.2,41.3,47.3,41.1z M45.4,62c0,0.2-0.1,0.6-0.2,0.7c-0.2,0.3-0.5,0.6-0.7,0.8c0.1,0.1,0.2,0.3,0.3,0.6
				c0.1,0.2,0.2,0.6,0.2,0.9s0,0.6,0,0.9c0,0.2-0.1,0.3-0.2,0.6c-0.2,0.5-0.6,0.7-0.9,0.9c0.1,0.1,0.1,0.2,0.2,0.3
				c0.1,0.2,0.2,0.6,0.2,0.9c0,0.3,0,0.7-0.1,1.1c-0.1,0.3-0.3,0.7-0.6,0.9c-0.1,0.1-0.2,0.2-0.5,0.2c0.2,0.5,0.3,0.8,0.3,1.3v0.3
				c0,0.4-0.1,0.7-0.2,1.1c-0.1,0.4-0.5,0.6-0.7,0.8c-0.2,0.1-0.5,0.2-0.8,0.2c-0.1,0-0.2,0-0.3,0s-0.1,0-0.2,0l-3.5-0.6
				c0,0-0.1,0.1-0.3,0c-0.2,0-0.3,0-0.6,0h-0.2c-0.1,0-0.2,0-0.3,0s-0.3,0-0.5,0c-0.2,0-0.6,0-0.8-0.1c-0.1,0-0.2,0-0.2,0
				c-0.2,0-0.3,0-0.6-0.1c-0.1,0-0.4,0-0.5,0c-0.2,0-0.5,0-0.7-0.1h-0.3c-0.5,0-0.8-0.1-1.3-0.2h-0.2c-0.1,0-0.2,0-0.2-0.1
				c-0.1,0-0.2,0-0.4-0.1l-0.2-0.1c-0.1,0-0.2-0.1-0.3-0.1h-0.1c-0.1,0-0.2,0-0.2-0.1c-0.1-0.1-0.3-0.1-0.5-0.2
				c-0.1,0-0.4-0.1-0.5-0.2l-0.5-0.2c-0.2-0.1-0.5-0.2-0.7-0.3c-0.4-0.1-0.7-0.4-0.9-0.5c-0.2-0.1-0.5-0.3-0.7-0.5l-4.3-0.7
				c-0.1,0-0.4,0-0.5-0.1c-0.2-0.1-0.3-0.2-0.5-0.4c-0.7-0.1-0.9-0.6-0.9-1.2c0-4.4,0-8.9,0-13.3c0-0.2,0-0.5,0.1-0.6
				c0.1-0.2,0.2-0.5,0.5-0.6c0.2-0.1,0.6-0.2,0.9-0.1c1.1,0.1,4.8,0.7,6.3,0.9h0.1c0.1,0,0.3-0.1,0.5-0.1c0.1,0,0.2,0,0.2-0.1h0.2
				c0.2,0,0.3-0.1,0.5-0.1c0.2,0,0.3,0,0.6-0.1c0.2,0,0.4,0,0.6,0h0.1c0.2,0,0.3,0,0.5-0.1c0.2-0.1,0.6-0.1,0.7-0.3
				c0.2-0.1,0.4-0.2,0.5-0.5c0.1-0.2,0.4-0.3,0.5-0.7c0.1-0.2,0.1-0.5,0.2-0.6c0-0.2,0.1-0.5,0.1-0.7v-0.1c0-0.2,0-0.3,0-0.6
				c0-0.3,0-0.6,0-0.8c0.1-0.3,0.2-0.6,0.3-0.7c0.2-0.2,0.6-0.5,0.9-0.5c0.1,0,0.2,0,0.5,0c0.3,0,0.8,0,1.3,0.2
				c0.1,0,0.3,0.1,0.5,0.2c0.1,0.1,0.3,0.2,0.6,0.3c0.5,0.3,0.8,0.9,1.2,1.6c0.1,0.2,0.1,0.5,0.2,0.7c0,0.1,0.1,0.3,0.1,0.5
				c0,0.1,0,0.2,0.1,0.5v0.1c0,0.2,0.1,0.5,0.1,0.7c0,0.1,0,0.2,0,0.3s0,0.2,0,0.3s0,0.4,0,0.5c0,0.1,0,0.2,0,0.3v0.1v0.1
				c0,0.1,0,0.1,0,0.2c0,0.1,0,0.2-0.1,0.3s0,0.1,0,0.2c0,0.2-0.1,0.4-0.2,0.5c-0.1,0.2-0.2,0.3-0.2,0.6c0,0.1-0.1,0.2-0.2,0.3
				c0.1,0,0.2,0,0.3,0l4.7,0.7c0.3,0,0.7,0.1,1,0.3c0.3,0.1,0.6,0.3,0.8,0.6s0.5,0.6,0.6,0.9c0.1,0.3,0.2,0.6,0.2,0.9
				C45.4,61.4,45.4,61.7,45.4,62L45.4,62z"/>
			<path class="st0" d="M41.5,71.2c-0.1-0.1-0.2-0.1-0.5-0.2l-1.4-0.2c-0.8-0.1-1.6-0.2-2.6-0.4h-0.1c-0.2,0-0.5,0.1-0.6,0.4
				c-0.1,0.1-0.1,0.2-0.1,0.5v0.1v0.1c0,0.5,0.2,0.7,0.6,1.1c0.1,0,0.1,0.1,0.2,0.1c0.1,0,0.3,0.1,0.5,0.1l2.1,0.3
				c0.5,0.1,0.8,0.1,1.3,0.2c0.2,0,0.5,0,0.6-0.1c0.1-0.1,0.2-0.2,0.3-0.4c0-0.1,0.1-0.2,0.1-0.3v-0.2
				C42.1,71.8,41.8,71.6,41.5,71.2L41.5,71.2z"/>
			<path class="st0" d="M35.5,61.2c0-0.1-0.1-0.2-0.1-0.3c0,0.1,0,0.2-0.1,0.3c0,0.1,0,0.1,0,0.2c0,0.1,0,0.2-0.1,0.2
				c-0.1,0.2-0.1,0.3-0.2,0.5c-0.1,0.2-0.1,0.4-0.2,0.6c-0.1,0.2-0.2,0.5-0.3,0.7c-0.3,0.5-0.7,0.8-1.1,1.2c-0.3,0.2-0.7,0.5-1,0.6
				c-0.2,0.1-0.6,0.2-0.8,0.3c-0.2,0.1-0.6,0.1-0.8,0.2c-0.2,0-0.5,0-0.6,0c-0.2,0-0.5,0-0.8,0c-0.2,0-0.6-0.1-0.7-0.3
				c-0.1-0.2-0.2-0.5-0.1-0.7c0.1-0.2,0.2-0.3,0.5-0.5c0.1,0,0.2,0,0.4,0c0.2,0,0.6,0,0.9,0c0.2,0,0.3,0,0.6-0.1
				c0.6-0.1,1.2-0.4,1.5-0.7c0.2-0.2,0.5-0.5,0.7-0.7c0.2-0.3,0.5-0.7,0.7-1.2c0.1-0.1,0.1-0.3,0.2-0.5V61c0-0.1,0-0.2,0.1-0.3
				l0.1-0.3c0-0.2,0.1-0.4,0.1-0.5c0.1-0.5,0.3-0.9,0.7-1.3c0.1-0.1,0.2-0.2,0.5-0.4l0.1-0.1c0.5-0.3,0.8-0.7,1.1-1.2
				c0.1-0.2,0.3-0.6,0.5-0.8c0.1-0.2,0.2-0.5,0.2-0.7l0.1-0.3c0-0.1,0-0.2,0-0.2s0-0.2,0-0.4s0-0.2,0-0.3s0-0.1,0-0.2
				c0-0.2,0-0.5,0-0.7c0-0.5-0.1-0.8-0.2-1.2c-0.1-0.5-0.3-0.7-0.6-1.1c-0.1-0.1-0.3-0.2-0.5-0.3c-0.1,0-0.2-0.1-0.3-0.1
				c-0.2-0.1-0.3-0.1-0.5-0.1c-0.2,0-0.5,0-0.6,0.1s-0.1,0.1-0.1,0.2c0,0.1,0,0.1,0,0.2c0,0.1,0,0.1,0,0.2c0,0.3,0,0.7,0,0.9
				s0,0.5-0.1,0.7v0.1V53c-0.1,0.7-0.5,1.3-0.8,1.8c-0.3,0.5-0.8,0.7-1.4,0.9c-0.2,0.1-0.5,0.1-0.7,0.2c-0.2,0-0.6,0.1-0.8,0.1h-0.1
				c0,0-0.1,0-0.2,0c-0.1,0-0.2,0-0.2,0c-0.1,0-0.1,0-0.2,0h-0.2c-0.1,0-0.2,0-0.5,0.1c-0.2,0.1-0.6,0.1-0.8,0.2
				c-0.1,0-0.2,0-0.2,0.1l-0.2,0.1l-6.7-1c0,0,0,0,0,0.1v13.2V69c0,0.1,0.1,0.1,0.1,0.1l0.9,0.1c0.6,0.1,3.7,0.6,3.7,0.6h0.1
				l0.1,0.1c0.2,0.1,0.5,0.2,0.7,0.5h0.1c0.2,0.1,0.3,0.2,0.6,0.4c0.2,0.1,0.5,0.2,0.6,0.3l0.2,0.1c0.1,0,0.2,0.1,0.3,0.1
				c0,0,0.1,0,0.2,0.1c0.1,0,0.2,0.1,0.2,0.1s0,0,0.1,0s0.1,0,0.2,0.1h0.1h0.1H30c0.1,0,0.2,0,0.2,0.1h0.1c0.1,0,0.2,0.1,0.5,0.1H31
				c0.2,0,0.5,0.1,0.6,0.1s0.3,0,0.5,0.1c0.2,0,0.6,0.1,0.9,0.1c0.2,0,0.3,0,0.6,0.1c0.5,0,0.8,0.1,1.3,0.1c0.1,0,0.2,0,0.2,0
				c0.2,0,0.2,0,0.4,0c-0.1-0.1-0.1-0.3-0.2-0.5c-0.1-0.3-0.1-0.7-0.1-1.1c0-0.5,0.2-0.9,0.5-1.3l0,0c-0.3-0.4-0.6-0.7-0.8-1.2
				c-0.1-0.2-0.1-0.6-0.1-0.8c0-0.4,0-0.6,0.1-0.9c0.1-0.2,0.2-0.5,0.3-0.7c0.1-0.1,0.4-0.3,0.5-0.5c-0.5-0.6-0.7-1.3-0.6-2.1
				c0.1-0.7,0.5-1.3,1.1-1.6C35.9,61.7,35.7,61.4,35.5,61.2L35.5,61.2z"/>
			<path class="st0" d="M35.9,69.7L35.9,69.7L35.9,69.7z"/>
			<path class="st0" d="M42.7,63.8L42.7,63.8l-4.4-0.7c-0.1,0-0.3,0-0.5-0.1c-0.1,0-0.2,0-0.3,0l0,0c-0.1,0-0.2,0-0.5,0.1
				c-0.2,0.1-0.3,0.2-0.5,0.5c-0.1,0.2-0.1,0.3-0.1,0.6c0,0.3,0.2,0.7,0.5,0.9c0.1,0.1,0.4,0.2,0.6,0.3c0.1,0,0.2,0.1,0.3,0.1l3,0.5
				c0.6,0.1,1,0.1,1.6,0.2c0.3,0,0.7-0.1,0.9-0.3c0.1-0.2,0.2-0.5,0.2-0.7c0-0.5-0.2-0.7-0.6-1.1C42.9,64,42.8,63.9,42.7,63.8
				L42.7,63.8z"/>
			<path class="st0" d="M43.6,60.3c-0.1-0.1-0.3-0.3-0.5-0.3c-0.1,0-0.2-0.1-0.2-0.1c-0.5-0.1-0.9-0.1-1.4-0.2l-3.4-0.5
				c-0.1,0-0.1,0-0.2,0c0,0,0,0-0.1,0s-0.2,0-0.5,0.1c-0.2,0.1-0.3,0.2-0.5,0.3c0,0.1-0.1,0.1-0.1,0.2c0,0.1,0,0.2,0,0.3
				c0,0.3,0.1,0.7,0.3,0.9c0.1,0.1,0.2,0.2,0.3,0.3c0.2,0.1,0.4,0.1,0.5,0.1c0.6,0.1,1.3,0.2,1.9,0.2l1.4,0.2c0.6,0.1,1,0.1,1.6,0.2
				c0.2,0,0.5,0,0.7-0.1c0.2-0.1,0.3-0.2,0.3-0.5l0,0c0-0.1,0-0.2,0-0.3c0-0.2,0-0.3-0.1-0.6C43.8,60.6,43.8,60.5,43.6,60.3
				L43.6,60.3z"/>
		</g>
		<path class="st0" d="M50,16.5c-8.1,0-14.7,6.5-14.7,14.7c0,1.5,0.2,2.9,0.6,4.3l12,2.2c0.7,0.1,1.4,0.5,2,0.8
			c0.6-0.5,1.3-0.7,2-0.8L64,35.5c0.5-1.4,0.6-2.8,0.6-4.3C64.7,23.2,58.1,16.5,50,16.5z M42.4,30.1c-0.9,0-1.8-0.8-1.8-1.8
			s0.8-1.8,1.8-1.8c0.9,0,1.8,0.8,1.8,1.8S43.3,30.1,42.4,30.1z M55.1,33.9c-1.4,1.1-3.3,1.6-5.1,1.6c-1.9,0-3.7-0.6-5.1-1.6
			c-0.7-0.6-0.3-1.8,0.6-1.8h9.2C55.5,32,55.9,33.3,55.1,33.9z M57.6,30.1c-0.9,0-1.8-0.8-1.8-1.8s0.8-1.8,1.8-1.8
			c0.9,0,1.8,0.8,1.8,1.8S58.5,30.1,57.6,30.1z"/>
	</g>
</g>
</svg>
