<?xml version="1.0" encoding="utf-8"?>
<!-- Generator: Adobe Illustrator 28.1.0, SVG Export Plug-In . SVG Version: 6.00 Build 0)  -->
<svg version="1.1" id="Capa_2_00000171697357423035434680000000592859100907090362_"
	 xmlns="http://www.w3.org/2000/svg" xmlns:xlink="http://www.w3.org/1999/xlink" x="0px" y="0px" viewBox="0 0 100 100"
	 style="enable-background:new 0 0 100 100;" xml:space="preserve">
<style type="text/css">
	.st0{fill:#00146C;}
</style>
<g id="Capa_1-2">
	<g>
		<path class="st0" d="M63.9,20h-34c-4,0-7.2,3.2-7.2,7.2v44.5c0,0.3,0,0.5,0.1,0.7c0,0.2-0.1,0.4-0.1,0.6c0,3.9,3.1,7,7,7h39.3
			c1.1,0,2-0.9,2-2v-5.1h-3.5v3.7H29.7c-1.9,0-3.5-1.6-3.5-3.5s1.6-3.5,3.5-3.5h41.4V27.2C71.1,23.2,67.9,20,63.9,20z"/>
		<g>
			<path class="st0" d="M73.4,27.7h2c1,0,1.8,0.8,1.8,1.8v4.8c0,1-0.8,1.8-1.8,1.8h-2V27.7L73.4,27.7z"/>
			<path class="st0" d="M73.4,38.6h2c1,0,1.8,0.8,1.8,1.8v4.8c0,1-0.8,1.8-1.8,1.8h-2V38.6C73.4,38.6,73.4,38.6,73.4,38.6z"/>
			<path class="st0" d="M73.4,49.5h2c1,0,1.8,0.8,1.8,1.8v4.8c0,1-0.8,1.8-1.8,1.8h-2V49.5L73.4,49.5z"/>
		</g>
	</g>
</g>
</svg>
